P3
20 20
255

100 80  182 100 80  182 100 80  182 100 80  182 100 80  182 100 80  182 173 0   217 173 0   217 57  88  115 57  88  115 57  88  115 57  88  115 57  88  115 57  88  115 57  88  115 57  88  115 57  88  115 57  88  115 57  88  115 57  88  115 
100 80  182 100 80  182 100 80  182 100 80  182 100 80  182 100 80  182 100 80  182 173 0   217 100 80  182 57  88  115 57  88  115 57  88  115 57  88  115 57  88  115 57  88  115 57  88  115 57  88  115 57  88  115 57  88  115 57  88  115 
100 80  182 100 80  182 100 80  182 100 80  182 100 80  182 100 80  182 100 80  182 173 0   217 255 0   0   57  88  115 57  88  115 57  88  115 57  88  115 57  88  115 57  88  115 57  88  115 57  88  115 57  88  115 57  88  115 57  88  115 
100 80  182 100 80  182 100 80  182 100 80  182 100 80  182 100 80  182 100 80  182 100 80  182 173 0   217 57  88  115 57  88  115 57  88  115 57  88  115 57  88  115 57  88  115 57  88  115 57  88  115 57  88  115 217 255 191 173 0   217 
100 80  182 100 80  182 100 80  182 100 80  182 100 80  182 100 80  182 100 80  182 100 80  182 217 255 191 57  88  115 57  88  115 57  88  115 57  88  115 57  88  115 57  88  115 57  88  115 57  88  115 255 0   0   173 0   217 217 255 191 
100 80  182 100 80  182 100 80  182 100 80  182 100 80  182 100 80  182 100 80  182 100 80  182 255 0   0   255 0   0   57  88  115 57  88  115 57  88  115 57  88  115 57  88  115 57  88  115 217 255 191 173 0   217 57  88  115 255 0   0   
100 80  182 100 80  182 100 80  182 100 80  182 100 80  182 100 80  182 100 80  182 100 80  182 100 80  182 57  88  115 255 0   0   57  88  115 57  88  115 57  88  115 57  88  115 100 80  182 217 255 191 255 0   0   255 0   0   255 0   0   
100 80  182 100 80  182 100 80  182 100 80  182 100 80  182 100 80  182 100 80  182 100 80  182 217 255 191 217 255 191 255 0   0   57  88  115 255 0   0   57  88  115 173 0   217 217 255 191 255 0   0   255 0   0   255 0   0   255 0   0   
100 80  182 100 80  182 100 80  182 100 80  182 100 80  182 100 80  182 100 80  182 100 80  182 100 80  182 100 80  182 255 0   0   255 0   0   100 80  182 57  88  115 255 0   0   255 0   0   255 0   0   255 0   0   255 0   0   255 0   0   
100 80  182 173 0   217 100 80  182 57  88  115 100 80  182 100 80  182 217 255 191 57  88  115 217 255 191 255 0   0   255 0   0   255 0   0   217 255 191 217 255 191 255 0   0   255 0   0   255 0   0   255 0   0   255 0   0   255 0   0   
255 0   0   255 0   0   255 0   0   255 0   0   255 0   0   255 0   0   255 0   0   255 0   0   255 0   0   255 0   0   105 105 105 255 0   0   255 0   0   255 0   0   255 0   0   255 0   0   255 0   0   255 0   0   255 0   0   255 0   0   
173 0   217 100 80  182 173 0   217 217 255 191 173 0   217 173 0   217 57  88  115 217 255 191 57  88  115 255 0   0   255 0   0   255 0   0   57  88  115 57  88  115 255 0   0   255 0   0   255 0   0   255 0   0   255 0   0   255 0   0   
173 0   217 173 0   217 173 0   217 173 0   217 173 0   217 173 0   217 173 0   217 173 0   217 173 0   217 173 0   217 255 0   0   255 0   0   173 0   217 217 255 191 255 0   0   255 0   0   255 0   0   255 0   0   255 0   0   255 0   0   
173 0   217 173 0   217 173 0   217 173 0   217 173 0   217 173 0   217 173 0   217 173 0   217 57  88  115 57  88  115 255 0   0   217 255 191 255 0   0   217 255 191 100 80  182 57  88  115 255 0   0   255 0   0   255 0   0   255 0   0   
173 0   217 173 0   217 173 0   217 173 0   217 173 0   217 173 0   217 173 0   217 173 0   217 173 0   217 217 255 191 255 0   0   217 255 191 217 255 191 217 255 191 217 255 191 173 0   217 57  88  115 255 0   0   255 0   0   255 0   0   
173 0   217 173 0   217 173 0   217 173 0   217 173 0   217 173 0   217 173 0   217 173 0   217 255 0   0   255 0   0   217 255 191 217 255 191 217 255 191 217 255 191 217 255 191 217 255 191 57  88  115 100 80  182 217 255 191 255 0   0   
173 0   217 173 0   217 173 0   217 173 0   217 173 0   217 173 0   217 173 0   217 173 0   217 57  88  115 217 255 191 217 255 191 217 255 191 217 255 191 217 255 191 217 255 191 217 255 191 217 255 191 255 0   0   100 80  182 57  88  115 
173 0   217 173 0   217 173 0   217 173 0   217 173 0   217 173 0   217 173 0   217 173 0   217 100 80  182 217 255 191 217 255 191 217 255 191 217 255 191 217 255 191 217 255 191 217 255 191 217 255 191 217 255 191 57  88  115 100 80  182 
173 0   217 173 0   217 173 0   217 173 0   217 173 0   217 173 0   217 173 0   217 100 80  182 255 0   0   217 255 191 217 255 191 217 255 191 217 255 191 217 255 191 217 255 191 217 255 191 217 255 191 217 255 191 217 255 191 217 255 191 
173 0   217 173 0   217 173 0   217 173 0   217 173 0   217 173 0   217 173 0   217 100 80  182 173 0   217 217 255 191 217 255 191 217 255 191 217 255 191 217 255 191 217 255 191 217 255 191 217 255 191 217 255 191 217 255 191 217 255 191 